<svg width="60" height="60" viewBox="0 0 60 60" fill="none" xmlns="http://www.w3.org/2000/svg">
<rect width="60" height="60" rx="4" fill="url(#paint0_linear_2205_13)"/>
<path fill-rule="evenodd" clip-rule="evenodd" d="M45.0735 14.9402C43.1111 12.9649 40.7762 11.3986 38.2041 10.3321C35.632 9.26556 32.8738 8.72004 30.0894 8.72712C18.4136 8.72712 8.90875 18.2296 8.90403 29.9101C8.90403 33.6432 9.87858 37.2866 11.7309 40.5005L8.72705 51.4754L19.9569 48.5282C23.0632 50.2191 26.5432 51.1058 30.08 51.1073H30.0894C41.7628 51.1073 51.2677 41.6048 51.2724 29.9243C51.2804 27.141 50.7367 24.3837 49.6727 21.8118C48.6087 19.2399 47.0455 16.9044 45.0735 14.9402ZM30.0894 47.5324H30.0823C26.9286 47.5327 23.833 46.6842 21.1202 45.0759L20.4784 44.6936L13.8146 46.4422L15.5914 39.9459L15.1737 39.2805C13.4106 36.4735 12.4772 33.225 12.4813 29.9101C12.4861 20.2023 20.384 12.3044 30.0965 12.3044C32.4096 12.2993 34.7007 12.753 36.8373 13.6392C38.9739 14.5254 40.9135 15.8266 42.5439 17.4674C44.183 19.1005 45.4822 21.0421 46.3663 23.1803C47.2505 25.3184 47.7021 27.6106 47.6951 29.9243C47.6904 39.6321 39.7925 47.5324 30.0894 47.5324ZM39.7477 34.344C39.2167 34.0774 36.6163 32.7984 36.1302 32.6214C35.6465 32.4444 35.2949 32.3571 34.9409 32.8857C34.587 33.4143 33.5723 34.6059 33.2632 34.9599C32.9541 35.3138 32.645 35.3563 32.1164 35.092C31.5878 34.8277 29.8817 34.2685 27.8595 32.4657C26.2856 31.0617 25.2237 29.3296 24.9146 28.7987C24.6055 28.2678 24.8815 27.9823 25.1482 27.718C25.3865 27.482 25.6768 27.0997 25.9411 26.7906C26.2053 26.4815 26.2926 26.262 26.4696 25.9081C26.6466 25.5541 26.5593 25.245 26.4248 24.9807C26.2926 24.7141 25.2331 22.109 24.7919 21.0495C24.3648 20.023 23.9282 20.1599 23.6026 20.1457C23.2653 20.1319 22.9278 20.1256 22.5903 20.1268C22.3219 20.1337 22.0578 20.1959 21.8146 20.3096C21.5713 20.4233 21.3542 20.586 21.1768 20.7875C20.6907 21.3185 19.3245 22.5974 19.3245 25.2025C19.3245 27.8076 21.2217 30.3254 21.4859 30.6794C21.7502 31.0333 25.219 36.3781 30.5283 38.6717C31.7931 39.2168 32.7795 39.5424 33.5464 39.7878C34.8135 40.1913 35.9674 40.1323 36.8806 39.9978C37.8976 39.8468 40.0119 38.7189 40.4532 37.4824C40.8945 36.2459 40.8945 35.1864 40.7623 34.9646C40.6302 34.7428 40.2739 34.6083 39.7477 34.344Z" fill="white"/>
<defs>
<linearGradient id="paint0_linear_2205_13" x1="30" y1="0" x2="30" y2="60" gradientUnits="userSpaceOnUse">
<stop stop-color="#E7D5C5"/>
<stop offset="1" stop-color="#EFE0D2"/>
</linearGradient>
</defs>
</svg>
